# This file uses centimeters as units for non-parametric coordinates.

mtllib boat.mtl
g default
v 2.206569 -0.349834 -2.077845
v 1.875677 -0.349834 -3.943967
v 1.360268 -0.349834 -5.424690
v 0.709005 -0.349834 -6.374016
v -0.013175 -0.349834 -6.694944
v -0.726282 -0.349834 -6.360199
v -1.369024 -0.349834 -5.407431
v -1.880371 -0.349834 -3.925960
v -2.208676 -0.349834 -2.059605
v -2.293590 -0.321472 -0.056555
v -2.208676 -0.373418 2.059604
v -1.880371 -0.373418 3.925958
v -1.369024 -0.373418 5.407429
v -0.726282 -0.373418 6.360196
v -0.013175 -0.373418 6.694941
v 0.709005 -0.373418 6.374012
v 1.360267 -0.373418 5.424686
v 1.875676 -0.373418 3.943964
v 2.206568 -0.373418 2.077843
v 2.321192 -0.374801 -0.008189
v 2.206569 -0.108750 -2.476791
v 1.875677 -0.108750 -4.701207
v 1.360268 -0.108750 -6.466229
v 0.709005 -0.108750 -7.597826
v -0.013175 -0.108750 -7.980372
v -0.726282 -0.108750 -7.581355
v -1.369024 -0.108750 -6.445655
v -1.880371 -0.108750 -4.679743
v -2.208676 -0.108750 -2.455048
v -2.321192 -0.133717 0.009761
v -2.208676 -0.132334 2.455047
v -1.880371 -0.132334 4.679741
v -1.369024 -0.132334 6.445654
v -0.726282 -0.132334 7.581352
v -0.013175 -0.132334 7.980368
v 0.709005 -0.132334 7.597821
v 1.360267 -0.132334 6.466225
v 1.875676 -0.132334 4.701204
v 2.206568 -0.132334 2.476789
v 2.321192 -0.133717 -0.009761
v 2.206569 0.132334 -2.609773
v 1.875677 0.132334 -4.953621
v 1.360268 0.132334 -6.813409
v 0.709005 0.132334 -8.005761
v -0.013175 0.132334 -8.408848
v -0.726282 0.132334 -7.988407
v -1.369024 0.132334 -6.791731
v -1.880371 0.132334 -4.931003
v -2.208676 0.132334 -2.586863
v -2.321192 0.108750 -0.011492
v -2.208676 0.108750 2.586862
v -1.880371 0.108750 4.931003
v -1.369024 0.108750 6.791728
v -0.726282 0.108750 7.988404
v -0.013175 0.108750 8.408844
v 0.709005 0.108750 8.005757
v 1.360267 0.108750 6.813404
v 1.875676 0.108750 4.953617
v 2.206568 0.108750 2.609771
v 2.321192 0.107367 -0.010285
v 2.206569 0.373418 -2.742754
v 1.875677 0.373418 -5.206034
v 1.360268 0.373418 -7.160588
v 0.709005 0.373418 -8.413697
v -0.013175 0.373418 -8.837323
v -0.726282 0.373418 -8.395459
v -1.369024 0.373418 -7.137805
v -1.880371 0.373418 -5.182264
v -2.208676 0.373418 -2.718677
v -2.321193 0.348451 0.010809
v -2.208676 0.349834 2.718676
v -1.880371 0.349834 5.182264
v -1.369024 0.349834 7.137804
v -0.726282 0.349834 8.395456
v -0.013175 0.349834 8.837319
v 0.709005 0.349834 8.413693
v 1.360267 0.349834 7.160584
v 1.875676 0.349834 5.206032
v 2.206568 0.349834 2.742753
v 2.321192 0.348451 -0.010809
v 2.206569 0.614502 -2.842491
v 1.875677 0.614502 -5.395344
v 1.360268 0.614502 -7.420973
v 0.709005 0.614502 -8.719649
v -0.013175 0.614502 -9.158679
v -0.726282 0.614502 -8.700748
v -1.369024 0.614502 -7.397361
v -1.880371 0.614502 -5.370710
v -2.208676 0.614502 -2.817538
v -2.321193 0.589535 0.011202
v -2.208676 0.590918 2.817537
v -1.880371 0.590918 5.370709
v -1.369024 0.590918 7.397360
v -0.726282 0.590918 8.700745
v -0.013175 0.590918 9.158676
v 0.709005 0.590918 8.719646
v 1.360267 0.590918 7.420969
v 1.875676 0.590918 5.395341
v 2.206568 0.590918 2.842489
v 2.321192 0.589535 -0.011202
v 2.205862 0.861378 -2.925078
v 1.875315 0.860619 -5.572208
v 1.360092 0.858891 -7.670811
v 0.708985 0.857107 -9.016145
v -0.013168 0.855614 -9.471040
v -0.726356 0.854096 -8.997079
v -1.369217 0.851517 -7.647791
v -1.880740 0.847532 -5.550508
v -2.209353 0.840726 -2.909869
v -2.322565 0.830686 0.011512
v -2.209359 0.826340 2.928326
v -1.880740 0.827185 5.562268
v -1.369217 0.828974 7.654642
v -0.726356 0.830764 9.000501
v -0.013168 0.832171 9.473616
v 0.708984 0.833827 9.019894
v 1.360091 0.836441 7.677952
v 1.875314 0.840387 5.584157
v 2.205861 0.847478 2.943842
v 2.319741 0.856976 0.011608
v 2.153874 0.852433 -2.909069
v 1.823232 0.852433 -5.516571
v 1.309304 0.852433 -7.581540
v 0.666530 0.852433 -8.893299
v -0.017479 0.852433 -9.321860
v -0.689450 0.852433 -8.867636
v -1.320921 0.852433 -7.549485
v -1.829460 0.852433 -5.483126
v -2.156670 0.852433 -2.875190
v -2.268674 0.852433 -0.016993
v -2.156670 0.852433 2.875190
v -1.829460 0.852433 5.483126
v -1.320921 0.852433 7.549483
v -0.689450 0.852433 8.867634
v -0.017479 0.852433 9.321856
v 0.666529 0.852433 8.893295
v 1.309303 0.852433 7.581537
v 1.823231 0.852433 5.516568
v 2.153873 0.852433 2.909067
v 2.268673 0.834954 -0.000000
v 2.206828 0.718029 -2.847642
v 1.877240 0.718029 -5.416537
v 1.363895 0.718029 -7.455222
v 0.717042 0.718029 -8.764140
v 0.000000 0.718029 -9.215161
v -0.717042 0.718029 -8.764140
v -1.363895 0.718029 -7.455221
v -1.877240 0.718029 -5.416535
v -2.206828 0.718029 -2.847640
v -2.320396 0.718029 -0.000000
v -2.206827 0.718029 2.847640
v -1.877240 0.718029 5.416534
v -1.363894 0.718029 7.455218
v -0.717042 0.718029 8.764137
v -0.000000 0.718029 9.215158
v 0.717041 0.718029 8.764137
v 1.363894 0.718029 7.455218
v 1.877239 0.718029 5.416534
v 2.206827 0.718029 2.847640
v 2.320395 0.718029 -0.000000
v 2.206828 0.259983 -2.465867
v 1.877240 0.259983 -4.690357
v 1.363895 0.259983 -6.455722
v 0.717042 0.259983 -7.589155
v 0.000000 0.259983 -7.979707
v -0.717042 0.259983 -7.589155
v -1.363895 0.259983 -6.455721
v -1.877240 0.259983 -4.690354
v -2.206828 0.259983 -2.465866
v -2.320396 0.259983 -0.000000
v -2.206828 0.259983 2.465865
v -1.877240 0.259983 4.690355
v -1.363894 0.259983 6.455719
v -0.717042 0.259983 7.589153
v -0.000000 0.259983 7.979705
v 0.717041 0.259983 7.589153
v 1.363894 0.259983 6.455718
v 1.877239 0.259983 4.690354
v 2.206827 0.259983 2.465864
v 2.320395 0.259983 -0.000000
vt 0.375000 0.457092
vt 0.387500 0.457092
vt 0.400000 0.457092
vt 0.412500 0.457092
vt 0.425000 0.457092
vt 0.437500 0.457092
vt 0.450000 0.457092
vt 0.462500 0.457092
vt 0.475000 0.457092
vt 0.487500 0.457092
vt 0.500000 0.457092
vt 0.512500 0.457092
vt 0.525000 0.457092
vt 0.537500 0.457092
vt 0.550000 0.457092
vt 0.562500 0.457092
vt 0.575000 0.457092
vt 0.587500 0.457092
vt 0.600000 0.457092
vt 0.612500 0.457092
vt 0.625000 0.457092
vt 0.375000 0.486011
vt 0.387500 0.486011
vt 0.400000 0.486011
vt 0.412500 0.486011
vt 0.425000 0.486011
vt 0.437500 0.486011
vt 0.450000 0.486011
vt 0.462500 0.486011
vt 0.475000 0.486011
vt 0.487500 0.486011
vt 0.500000 0.486011
vt 0.512500 0.486011
vt 0.525000 0.486011
vt 0.537500 0.486011
vt 0.550000 0.486011
vt 0.562500 0.486011
vt 0.575000 0.486011
vt 0.587500 0.486011
vt 0.600000 0.486011
vt 0.612500 0.486011
vt 0.625000 0.486011
vt 0.375000 0.514929
vt 0.387500 0.514929
vt 0.400000 0.514929
vt 0.412500 0.514929
vt 0.425000 0.514929
vt 0.437500 0.514929
vt 0.450000 0.514929
vt 0.462500 0.514929
vt 0.475000 0.514929
vt 0.487500 0.514929
vt 0.500000 0.514929
vt 0.512500 0.514929
vt 0.525000 0.514929
vt 0.537500 0.514929
vt 0.550000 0.514929
vt 0.562500 0.514929
vt 0.575000 0.514929
vt 0.587500 0.514929
vt 0.600000 0.514929
vt 0.612500 0.514929
vt 0.625000 0.514929
vt 0.375000 0.543848
vt 0.387500 0.543848
vt 0.400000 0.543848
vt 0.412500 0.543848
vt 0.425000 0.543848
vt 0.437500 0.543848
vt 0.450000 0.543848
vt 0.462500 0.543848
vt 0.475000 0.543848
vt 0.487500 0.543848
vt 0.500000 0.543848
vt 0.512500 0.543848
vt 0.525000 0.543848
vt 0.537500 0.543848
vt 0.550000 0.543848
vt 0.562500 0.543848
vt 0.575000 0.543848
vt 0.587500 0.543848
vt 0.600000 0.543848
vt 0.612500 0.543848
vt 0.625000 0.543848
vt 0.375000 0.572766
vt 0.387500 0.572766
vt 0.400000 0.572766
vt 0.412500 0.572766
vt 0.425000 0.572766
vt 0.437500 0.572766
vt 0.450000 0.572766
vt 0.462500 0.572766
vt 0.475000 0.572766
vt 0.487500 0.572766
vt 0.500000 0.572766
vt 0.512500 0.572766
vt 0.525000 0.572766
vt 0.537500 0.572766
vt 0.550000 0.572766
vt 0.562500 0.572766
vt 0.575000 0.572766
vt 0.587500 0.572766
vt 0.600000 0.572766
vt 0.612500 0.572766
vt 0.625000 0.572766
vt 0.375000 0.601684
vt 0.387500 0.601684
vt 0.400000 0.601684
vt 0.412500 0.601684
vt 0.425000 0.601684
vt 0.437500 0.601684
vt 0.450000 0.601684
vt 0.462500 0.601684
vt 0.475000 0.601684
vt 0.487500 0.601684
vt 0.500000 0.601684
vt 0.512500 0.601684
vt 0.525000 0.601684
vt 0.537500 0.601684
vt 0.550000 0.601684
vt 0.562500 0.601684
vt 0.575000 0.601684
vt 0.587500 0.601684
vt 0.600000 0.601684
vt 0.612500 0.601684
vt 0.625000 0.601684
vt 0.375000 0.630603
vt 0.387500 0.630603
vt 0.400000 0.630603
vt 0.412500 0.630603
vt 0.425000 0.630603
vt 0.437500 0.630603
vt 0.450000 0.630603
vt 0.462500 0.630603
vt 0.475000 0.630603
vt 0.487500 0.630603
vt 0.500000 0.630603
vt 0.512500 0.630603
vt 0.525000 0.630603
vt 0.537500 0.630603
vt 0.550000 0.630603
vt 0.562500 0.630603
vt 0.575000 0.630603
vt 0.587500 0.630603
vt 0.600000 0.630603
vt 0.612500 0.630603
vt 0.625000 0.630603
vt 0.375000 0.659521
vt 0.387500 0.659521
vt 0.400000 0.659521
vt 0.412500 0.659521
vt 0.425000 0.659521
vt 0.437500 0.659521
vt 0.450000 0.659521
vt 0.462500 0.659521
vt 0.475000 0.659521
vt 0.487500 0.659521
vt 0.500000 0.659521
vt 0.512500 0.659521
vt 0.525000 0.659521
vt 0.537500 0.659521
vt 0.550000 0.659521
vt 0.562500 0.659521
vt 0.575000 0.659521
vt 0.587500 0.659521
vt 0.600000 0.659521
vt 0.612500 0.659521
vt 0.625000 0.659521
vt 0.375000 0.688440
vt 0.387500 0.688440
vt 0.400000 0.688440
vt 0.412500 0.688440
vt 0.425000 0.688440
vt 0.437500 0.688440
vt 0.450000 0.688440
vt 0.462500 0.688440
vt 0.475000 0.688440
vt 0.487500 0.688440
vt 0.500000 0.688440
vt 0.512500 0.688440
vt 0.525000 0.688440
vt 0.537500 0.688440
vt 0.550000 0.688440
vt 0.562500 0.688440
vt 0.575000 0.688440
vt 0.587500 0.688440
vt 0.600000 0.688440
vt 0.612500 0.688440
vt 0.625000 0.688440
vt 0.648603 0.795466
vt 0.626409 0.751908
vt 0.591842 0.717341
vt 0.548284 0.695147
vt 0.500000 0.687500
vt 0.451716 0.695147
vt 0.408159 0.717341
vt 0.373591 0.751909
vt 0.351397 0.795466
vt 0.343750 0.843750
vt 0.351397 0.892034
vt 0.373591 0.935591
vt 0.408159 0.970159
vt 0.451716 0.992353
vt 0.500000 1.000000
vt 0.548284 0.992353
vt 0.591841 0.970159
vt 0.626409 0.935591
vt 0.648603 0.892034
vt 0.656250 0.843750
vn 0.010685 -0.999937 -0.003442
vn 0.010718 -0.999940 -0.002203
vn 0.010511 -0.999944 -0.001003
vn 0.008569 -0.999963 0.000137
vn 0.005553 -0.999984 0.001053
vn 0.001799 -0.999997 0.001628
vn -0.002280 -0.999996 0.001796
vn -0.006333 -0.999979 0.001578
vn -0.010066 -0.999949 0.001016
vn -0.013102 -0.999914 0.000118
vn -0.014045 -0.999901 -0.001096
vn -0.014930 -0.999886 -0.002229
vn -0.013972 -0.999897 -0.003336
vn -0.013102 -0.999904 -0.004525
vn -0.010065 -0.999935 -0.005396
vn -0.006332 -0.999962 -0.005935
vn -0.002280 -0.999978 -0.006144
vn 0.001799 -0.999980 -0.005985
vn 0.005553 -0.999970 -0.005432
vn 0.008569 -0.999953 -0.004544
vn 0.879713 -0.433279 -0.195896
vn 0.985503 -0.137868 -0.098870
vn 0.617089 -0.742842 -0.259590
vn 0.296287 -0.913208 -0.279760
vn -0.003103 -0.959351 -0.282199
vn -0.303855 -0.910820 -0.279427
vn -0.622981 -0.738194 -0.258776
vn -0.882018 -0.429061 -0.194809
vn -0.984054 -0.148515 -0.097886
vn -0.998561 -0.053628 0.000865
vn -0.983901 -0.149997 0.097157
vn -0.882018 -0.429062 0.194809
vn -0.622981 -0.738194 0.258776
vn -0.303855 -0.910820 0.279427
vn -0.003102 -0.959351 0.282199
vn 0.296287 -0.913208 0.279760
vn 0.617089 -0.742842 0.259590
vn 0.879713 -0.433279 0.195896
vn 0.985635 -0.137300 0.098351
vn 0.999646 -0.026604 -0.000010
vn 0.959221 -0.206496 -0.193015
vn 0.994186 -0.059619 -0.089667
vn 0.832919 -0.452837 -0.318095
vn 0.515446 -0.733402 -0.443213
vn -0.006049 -0.866225 -0.499617
vn -0.525944 -0.727580 -0.440466
vn -0.836668 -0.447686 -0.315538
vn -0.960021 -0.204077 -0.191603
vn -0.994301 -0.058739 -0.088971
vn -0.999929 -0.011946 -0.000403
vn -0.994301 -0.058873 0.088875
vn -0.960021 -0.204078 0.191603
vn -0.836668 -0.447686 0.315539
vn -0.525943 -0.727580 0.440466
vn -0.006049 -0.866225 0.499617
vn 0.515446 -0.733402 0.443213
vn 0.832919 -0.452837 0.318095
vn 0.959221 -0.206496 0.193015
vn 0.994246 -0.059275 0.089225
vn 0.999926 -0.012136 0.000000
vn 0.966727 -0.175284 -0.186316
vn 0.995029 -0.050312 -0.085946
vn 0.863295 -0.393725 -0.315757
vn 0.568557 -0.676435 -0.468165
vn -0.006968 -0.834093 -0.551580
vn -0.579157 -0.669959 -0.464470
vn -0.866479 -0.388937 -0.312958
vn -0.967370 -0.173204 -0.184921
vn -0.995152 -0.049161 -0.085185
vn -0.999950 -0.009979 0.000194
vn -0.995088 -0.050212 0.085318
vn -0.967370 -0.173204 0.184921
vn -0.866479 -0.388937 0.312958
vn -0.579156 -0.669960 0.464470
vn -0.006968 -0.834093 0.551579
vn 0.568557 -0.676435 0.468165
vn 0.863295 -0.393725 0.315756
vn 0.966727 -0.175284 0.186316
vn 0.995077 -0.050056 0.085535
vn 0.999948 -0.010158 -0.000001
vn 0.974041 -0.137422 -0.179887
vn 0.995997 -0.035766 -0.081917
vn 0.892662 -0.324483 -0.312835
vn 0.627149 -0.601715 -0.494594
vn -0.007016 -0.788245 -0.615321
vn -0.634189 -0.598897 -0.489006
vn -0.892604 -0.327418 -0.309929
vn -0.973349 -0.143304 -0.179039
vn -0.995780 -0.041993 -0.081596
vn -0.999944 -0.010563 0.000177
vn -0.995693 -0.043794 0.081716
vn -0.973003 -0.146153 0.178620
vn -0.891608 -0.330576 0.309443
vn -0.632767 -0.601255 0.487953
vn -0.007011 -0.789626 0.613548
vn 0.625670 -0.604181 0.493459
vn 0.891651 -0.327733 0.312328
vn 0.973709 -0.140292 0.179467
vn 0.995923 -0.038436 0.081608
vn 0.999984 -0.005583 0.000036
vn 0.978302 0.099660 -0.181642
vn 0.982026 0.170562 -0.080833
vn 0.942185 -0.041510 -0.332513
vn 0.744163 -0.309568 -0.591937
vn -0.009203 -0.579806 -0.814703
vn -0.752021 -0.307583 -0.582973
vn -0.943640 -0.040221 -0.328519
vn -0.978579 0.099822 -0.180053
vn -0.983028 0.165176 -0.079830
vn -0.983620 0.180255 0.000949
vn -0.983994 0.158722 0.081009
vn -0.979271 0.094093 0.179372
vn -0.944799 -0.032762 0.326008
vn -0.764162 -0.277193 0.582427
vn -0.006971 -0.539729 0.841810
vn 0.757233 -0.280051 0.590059
vn 0.943505 -0.036588 0.329331
vn 0.979388 0.090454 0.180603
vn 0.984266 0.156804 0.081442
vn 0.982268 0.187478 0.001038
vn -0.954796 0.234658 0.182485
vn -0.992250 0.090096 0.085569
vn -0.821128 0.484824 0.301155
vn -0.494999 0.760527 0.420207
vn 0.018209 0.888157 0.459179
vn 0.504700 0.761508 0.406673
vn 0.810498 0.507362 0.292706
vn 0.946222 0.268677 0.180213
vn 0.989451 0.116976 0.085455
vn 0.997689 0.067915 0.002069
vn 0.987125 0.136925 -0.082680
vn 0.929042 0.325328 -0.176192
vn 0.760544 0.588863 -0.273518
vn 0.446792 0.821439 -0.354422
vn 0.014124 0.921515 -0.388085
vn -0.440484 0.819797 -0.365932
vn -0.775687 0.564591 -0.282040
vn -0.940992 0.287732 -0.178169
vn -0.990500 0.109770 -0.082831
vn -0.999791 0.020395 0.001603
vn -0.964950 0.181343 0.189701
vn -0.996033 -0.013358 0.087982
vn -0.817155 0.490323 0.303054
vn -0.473619 0.790145 0.389046
vn -0.002431 0.909903 0.414815
vn 0.469420 0.793341 0.387626
vn 0.815406 0.493351 0.302850
vn 0.964660 0.182709 0.189865
vn 0.996060 -0.011315 0.087954
vn 0.997227 -0.074423 -0.000119
vn 0.996055 -0.012267 -0.087884
vn 0.964660 0.182709 -0.189865
vn 0.815406 0.493351 -0.302850
vn 0.469420 0.793341 -0.387626
vn -0.002431 0.909902 -0.414815
vn -0.473619 0.790144 -0.389046
vn -0.817155 0.490323 -0.303053
vn -0.964950 0.181343 -0.189701
vn -0.996033 -0.013358 -0.087982
vn -0.997030 -0.077009 -0.000000
vn -0.943031 0.281206 0.177807
vn -0.993140 0.081917 0.083439
vn -0.764234 0.583836 0.274011
vn -0.419299 0.842967 0.337038
vn 0.000000 0.934767 0.355261
vn 0.419300 0.842967 0.337038
vn 0.764234 0.583836 0.274011
vn 0.943031 0.281206 0.177807
vn 0.993140 0.081917 0.083440
vn 0.999841 0.017812 -0.000000
vn 0.993140 0.081917 -0.083440
vn 0.943031 0.281206 -0.177807
vn 0.764234 0.583836 -0.274011
vn 0.419300 0.842967 -0.337038
vn 0.000000 0.934767 -0.355261
vn -0.419300 0.842967 -0.337038
vn -0.764234 0.583836 -0.274011
vn -0.943031 0.281206 -0.177807
vn -0.993140 0.081917 -0.083440
vn -0.999841 0.017812 -0.000000
vn -0.000000 1.000000 0.000000
vn -0.000000 1.000000 0.000000
vn -0.000000 1.000000 0.000000
vn -0.000000 1.000000 0.000000
vn -0.000000 1.000000 0.000000
vn -0.000000 1.000000 0.000000
vn -0.000000 1.000000 0.000000
vn -0.000000 1.000000 0.000000
vn -0.000000 1.000000 0.000000
vn -0.000000 1.000000 0.000000
vn -0.000000 1.000000 0.000000
vn -0.000000 1.000000 0.000000
vn -0.000000 1.000000 0.000000
vn -0.000000 1.000000 0.000000
vn -0.000000 1.000000 0.000000
vn -0.000000 1.000000 0.000000
vn -0.000000 1.000000 0.000000
vn -0.000000 1.000000 0.000000
vn -0.000000 1.000000 0.000000
vn -0.000000 1.000000 0.000000
s 1
g pCylinder1
usemtl lambert2SG
f 1/21/1 20/20/2 19/19/3 18/18/4 17/17/5 16/16/6 15/15/7 14/14/8 13/13/9 12/12/10 11/11/11 10/10/12 9/9/13 8/8/14 7/7/15 6/6/16 5/5/17 4/4/18 3/3/19 2/2/20
f 1/1/1 2/2/20 22/23/21 21/22/22
f 2/2/20 3/3/19 23/24/23 22/23/21
f 3/3/19 4/4/18 24/25/24 23/24/23
f 4/4/18 5/5/17 25/26/25 24/25/24
f 5/5/17 6/6/16 26/27/26 25/26/25
f 6/6/16 7/7/15 27/28/27 26/27/26
f 7/7/15 8/8/14 28/29/28 27/28/27
f 8/8/14 9/9/13 29/30/29 28/29/28
f 9/9/13 10/10/12 30/31/30 29/30/29
f 10/10/12 11/11/11 31/32/31 30/31/30
f 11/11/11 12/12/10 32/33/32 31/32/31
f 12/12/10 13/13/9 33/34/33 32/33/32
f 13/13/9 14/14/8 34/35/34 33/34/33
f 14/14/8 15/15/7 35/36/35 34/35/34
f 15/15/7 16/16/6 36/37/36 35/36/35
f 16/16/6 17/17/5 37/38/37 36/37/36
f 17/17/5 18/18/4 38/39/38 37/38/37
f 18/18/4 19/19/3 39/40/39 38/39/38
f 19/19/3 20/20/2 40/41/40 39/40/39
f 20/20/2 1/21/1 21/42/22 40/41/40
f 21/22/22 22/23/21 42/44/41 41/43/42
f 22/23/21 23/24/23 43/45/43 42/44/41
f 23/24/23 24/25/24 44/46/44 43/45/43
f 24/25/24 25/26/25 45/47/45 44/46/44
f 25/26/25 26/27/26 46/48/46 45/47/45
f 26/27/26 27/28/27 47/49/47 46/48/46
f 27/28/27 28/29/28 48/50/48 47/49/47
f 28/29/28 29/30/29 49/51/49 48/50/48
f 29/30/29 30/31/30 50/52/50 49/51/49
f 30/31/30 31/32/31 51/53/51 50/52/50
f 31/32/31 32/33/32 52/54/52 51/53/51
f 32/33/32 33/34/33 53/55/53 52/54/52
f 33/34/33 34/35/34 54/56/54 53/55/53
f 34/35/34 35/36/35 55/57/55 54/56/54
f 35/36/35 36/37/36 56/58/56 55/57/55
f 36/37/36 37/38/37 57/59/57 56/58/56
f 37/38/37 38/39/38 58/60/58 57/59/57
f 38/39/38 39/40/39 59/61/59 58/60/58
f 39/40/39 40/41/40 60/62/60 59/61/59
f 40/41/40 21/42/22 41/63/42 60/62/60
f 41/43/42 42/44/41 62/65/61 61/64/62
f 42/44/41 43/45/43 63/66/63 62/65/61
f 43/45/43 44/46/44 64/67/64 63/66/63
f 44/46/44 45/47/45 65/68/65 64/67/64
f 45/47/45 46/48/46 66/69/66 65/68/65
f 46/48/46 47/49/47 67/70/67 66/69/66
f 47/49/47 48/50/48 68/71/68 67/70/67
f 48/50/48 49/51/49 69/72/69 68/71/68
f 49/51/49 50/52/50 70/73/70 69/72/69
f 50/52/50 51/53/51 71/74/71 70/73/70
f 51/53/51 52/54/52 72/75/72 71/74/71
f 52/54/52 53/55/53 73/76/73 72/75/72
f 53/55/53 54/56/54 74/77/74 73/76/73
f 54/56/54 55/57/55 75/78/75 74/77/74
f 55/57/55 56/58/56 76/79/76 75/78/75
f 56/58/56 57/59/57 77/80/77 76/79/76
f 57/59/57 58/60/58 78/81/78 77/80/77
f 58/60/58 59/61/59 79/82/79 78/81/78
f 59/61/59 60/62/60 80/83/80 79/82/79
f 60/62/60 41/63/42 61/84/62 80/83/80
f 61/64/62 62/65/61 82/86/81 81/85/82
f 62/65/61 63/66/63 83/87/83 82/86/81
f 63/66/63 64/67/64 84/88/84 83/87/83
f 64/67/64 65/68/65 85/89/85 84/88/84
f 65/68/65 66/69/66 86/90/86 85/89/85
f 66/69/66 67/70/67 87/91/87 86/90/86
f 67/70/67 68/71/68 88/92/88 87/91/87
f 68/71/68 69/72/69 89/93/89 88/92/88
f 69/72/69 70/73/70 90/94/90 89/93/89
f 70/73/70 71/74/71 91/95/91 90/94/90
f 71/74/71 72/75/72 92/96/92 91/95/91
f 72/75/72 73/76/73 93/97/93 92/96/92
f 73/76/73 74/77/74 94/98/94 93/97/93
f 74/77/74 75/78/75 95/99/95 94/98/94
f 75/78/75 76/79/76 96/100/96 95/99/95
f 76/79/76 77/80/77 97/101/97 96/100/96
f 77/80/77 78/81/78 98/102/98 97/101/97
f 78/81/78 79/82/79 99/103/99 98/102/98
f 79/82/79 80/83/80 100/104/100 99/103/99
f 80/83/80 61/84/62 81/105/82 100/104/100
f 81/85/82 82/86/81 102/107/101 101/106/102
f 82/86/81 83/87/83 103/108/103 102/107/101
f 83/87/83 84/88/84 104/109/104 103/108/103
f 84/88/84 85/89/85 105/110/105 104/109/104
f 85/89/85 86/90/86 106/111/106 105/110/105
f 86/90/86 87/91/87 107/112/107 106/111/106
f 87/91/87 88/92/88 108/113/108 107/112/107
f 88/92/88 89/93/89 109/114/109 108/113/108
f 89/93/89 90/94/90 110/115/110 109/114/109
f 90/94/90 91/95/91 111/116/111 110/115/110
f 91/95/91 92/96/92 112/117/112 111/116/111
f 92/96/92 93/97/93 113/118/113 112/117/112
f 93/97/93 94/98/94 114/119/114 113/118/113
f 94/98/94 95/99/95 115/120/115 114/119/114
f 95/99/95 96/100/96 116/121/116 115/120/115
f 96/100/96 97/101/97 117/122/117 116/121/116
f 97/101/97 98/102/98 118/123/118 117/122/117
f 98/102/98 99/103/99 119/124/119 118/123/118
f 99/103/99 100/104/100 120/125/120 119/124/119
f 100/104/100 81/105/82 101/126/102 120/125/120
f 101/106/102 102/107/101 122/128/121 121/127/122
f 102/107/101 103/108/103 123/129/123 122/128/121
f 103/108/103 104/109/104 124/130/124 123/129/123
f 104/109/104 105/110/105 125/131/125 124/130/124
f 105/110/105 106/111/106 126/132/126 125/131/125
f 106/111/106 107/112/107 127/133/127 126/132/126
f 107/112/107 108/113/108 128/134/128 127/133/127
f 108/113/108 109/114/109 129/135/129 128/134/128
f 109/114/109 110/115/110 130/136/130 129/135/129
f 110/115/110 111/116/111 131/137/131 130/136/130
f 111/116/111 112/117/112 132/138/132 131/137/131
f 112/117/112 113/118/113 133/139/133 132/138/132
f 113/118/113 114/119/114 134/140/134 133/139/133
f 114/119/114 115/120/115 135/141/135 134/140/134
f 115/120/115 116/121/116 136/142/136 135/141/135
f 116/121/116 117/122/117 137/143/137 136/142/136
f 117/122/117 118/123/118 138/144/138 137/143/137
f 118/123/118 119/124/119 139/145/139 138/144/138
f 119/124/119 120/125/120 140/146/140 139/145/139
f 120/125/120 101/126/102 121/147/122 140/146/140
f 121/127/122 122/128/121 142/149/141 141/148/142
f 122/128/121 123/129/123 143/150/143 142/149/141
f 123/129/123 124/130/124 144/151/144 143/150/143
f 124/130/124 125/131/125 145/152/145 144/151/144
f 125/131/125 126/132/126 146/153/146 145/152/145
f 126/132/126 127/133/127 147/154/147 146/153/146
f 127/133/127 128/134/128 148/155/148 147/154/147
f 128/134/128 129/135/129 149/156/149 148/155/148
f 129/135/129 130/136/130 150/157/150 149/156/149
f 130/136/130 131/137/131 151/158/151 150/157/150
f 131/137/131 132/138/132 152/159/152 151/158/151
f 132/138/132 133/139/133 153/160/153 152/159/152
f 133/139/133 134/140/134 154/161/154 153/160/153
f 134/140/134 135/141/135 155/162/155 154/161/154
f 135/141/135 136/142/136 156/163/156 155/162/155
f 136/142/136 137/143/137 157/164/157 156/163/156
f 137/143/137 138/144/138 158/165/158 157/164/157
f 138/144/138 139/145/139 159/166/159 158/165/158
f 139/145/139 140/146/140 160/167/160 159/166/159
f 140/146/140 121/147/122 141/168/142 160/167/160
f 141/148/142 142/149/141 162/170/161 161/169/162
f 142/149/141 143/150/143 163/171/163 162/170/161
f 143/150/143 144/151/144 164/172/164 163/171/163
f 144/151/144 145/152/145 165/173/165 164/172/164
f 145/152/145 146/153/146 166/174/166 165/173/165
f 146/153/146 147/154/147 167/175/167 166/174/166
f 147/154/147 148/155/148 168/176/168 167/175/167
f 148/155/148 149/156/149 169/177/169 168/176/168
f 149/156/149 150/157/150 170/178/170 169/177/169
f 150/157/150 151/158/151 171/179/171 170/178/170
f 151/158/151 152/159/152 172/180/172 171/179/171
f 152/159/152 153/160/153 173/181/173 172/180/172
f 153/160/153 154/161/154 174/182/174 173/181/173
f 154/161/154 155/162/155 175/183/175 174/182/174
f 155/162/155 156/163/156 176/184/176 175/183/175
f 156/163/156 157/164/157 177/185/177 176/184/176
f 157/164/157 158/165/158 178/186/178 177/185/177
f 158/165/158 159/166/159 179/187/179 178/186/178
f 159/166/159 160/167/160 180/188/180 179/187/179
f 160/167/160 141/168/142 161/189/162 180/188/180
s off
f 180/209/181 161/208/182 162/207/183 163/206/184 164/205/185 165/204/186 166/203/187 167/202/188 168/201/189 169/200/190 170/199/191 171/198/192 172/197/193 173/196/194 174/195/195 175/194/196 176/193/197 177/192/198 178/191/199 179/190/200
